<svg height="512" viewBox="0 0 64 64" width="512" xmlns="http://www.w3.org/2000/svg"><g id="Flat"><path d="m3 3h40v58h-40z" fill="#fadcb4"/><path d="m12 7h22v6h-22z" fill="#36474f"/><path d="m19 29h-10a1 1 0 0 1 -1-1v-10a1 1 0 0 1 1-1h10a1 1 0 0 1 1 1v10a1 1 0 0 1 -1 1zm-9-2h8v-8h-8z" fill="#36474f"/><path d="m15 27a1 1 0 0 1 -.707-.293l-3-3 1.414-1.414 2.293 2.293 7.293-7.293 1.414 1.414-8 8a1 1 0 0 1 -.707.293z" fill="#1f88e5"/><path d="m19 46h-10a1 1 0 0 1 -1-1v-10a1 1 0 0 1 1-1h10a1 1 0 0 1 1 1v10a1 1 0 0 1 -1 1zm-9-2h8v-8h-8z" fill="#36474f"/><path d="m15 44a1 1 0 0 1 -.707-.293l-3-3 1.414-1.414 2.293 2.293 7.293-7.293 1.414 1.414-8 8a1 1 0 0 1 -.707.293z" fill="#1f88e5"/><g fill="#36474f"><path d="m26 24h13v2h-13z"/><path d="m26 19h13v2h-13z"/><path d="m26 36h6v2h-6z"/><path d="m26 41h6v2h-6z"/><path d="m25 55h7v2h-7z"/><path d="m21 51h11v2h-11z"/></g><g id="OK"><path d="m48 61a20.877 20.877 0 0 1 -13-19.156v-11.844a36.1 36.1 0 0 0 13-4 36.09 36.09 0 0 0 13 4v11.844a20.877 20.877 0 0 1 -13 19.156z" fill="#ffd54f"/><path d="m48 26v35a20.877 20.877 0 0 0 13-19.156v-11.844a36.09 36.09 0 0 1 -13-4z" fill="#ffc108"/><path d="m45 46.586-5.293-5.293-1.414 1.414 6 6a1 1 0 0 0 1.414 0l2.293-2.293v-2.828z" fill="#ff7043"/><path d="m56.293 35.293-8.293 8.293v2.828l9.707-9.707z" fill="#e64a19"/></g></g></svg>