<svg height="512" viewBox="0 0 512 512" width="512" xmlns="http://www.w3.org/2000/svg"><g id="Solar_Technology_Farming" data-name="Solar Technology Farming"><g id="Flat"><path d="m144 152v352h48v-312z" fill="#7e97a3"/><path d="m192 243.2v-51.2l-48-40v109.41a158.926 158.926 0 0 1 48-18.21z" fill="#62818f"/><path d="m80 472a8 8 0 0 1 -8-8v-48a8 8 0 0 1 16 0v48a8 8 0 0 1 -8 8z" fill="#71ad3d"/><path d="m80 456a48.055 48.055 0 0 0 -48 48h96a48.055 48.055 0 0 0 -48-48z" fill="#f7e0ba"/><path d="m255.5 472a8 8 0 0 1 -8-8v-48a8 8 0 0 1 16 0v48a8 8 0 0 1 -8 8z" fill="#71ad3d"/><path d="m255.259 456a48.055 48.055 0 0 0 -48 48h96a48.054 48.054 0 0 0 -48-48z" fill="#f7e0ba"/><path d="m432 472a8 8 0 0 1 -8-8v-48a8 8 0 0 1 16 0v48a8 8 0 0 1 -8 8z" fill="#71ad3d"/><path d="m431.259 456a48.055 48.055 0 0 0 -48 48h96a48.054 48.054 0 0 0 -48-48z" fill="#f7e0ba"/><circle cx="64" cy="472" fill="#fbf2e2" r="8"/><circle cx="240" cy="472" fill="#fbf2e2" r="8"/><circle cx="416" cy="472" fill="#fbf2e2" r="8"/><path d="m154.939 369.539c-1.484-.272-36.636-6.521-58.931 5.435a41.591 41.591 0 0 0 -15.256 13.838 41.6 41.6 0 0 0 -15.252-13.838c-22.3-11.956-57.45-5.708-58.936-5.435a8 8 0 0 0 -5.912 11.024c.6 1.388 14.843 34.124 37.137 46.078 13.825 7.413 29.254 6.312 42.962-.926 13.677 7.222 29.113 8.353 42.962.926 22.3-11.954 36.542-44.69 37.138-46.078a8 8 0 0 0 -5.912-11.024z" fill="#9ccc65"/><path d="m73.851 504h54.149a48.06 48.06 0 0 0 -27.214-43.262 55.98 55.98 0 0 1 -26.935 43.262z" fill="#f5d59f"/><path d="m249.111 504h54.148a48.06 48.06 0 0 0 -27.214-43.262 55.979 55.979 0 0 1 -26.934 43.262z" fill="#f5d59f"/><path d="m425.111 504h54.148a48.06 48.06 0 0 0 -27.214-43.262 55.979 55.979 0 0 1 -26.934 43.262z" fill="#f5d59f"/><path d="m504 512h-496a8 8 0 0 1 0-16h496a8 8 0 0 1 0 16z" fill="#e8c085"/><path d="m154.939 369.539a135.794 135.794 0 0 0 -35.985-1.14 88.029 88.029 0 0 1 -96.812 45.621c17.974 19.5 38.663 22.228 58.609 11.695 13.677 7.222 29.113 8.353 42.962.926 22.3-11.954 36.542-44.69 37.138-46.078a8 8 0 0 0 -5.912-11.024z" fill="#83bd46"/><path d="m329.436 369.539c-1.485-.272-36.636-6.521-58.931 5.435a41.591 41.591 0 0 0 -15.256 13.838 41.6 41.6 0 0 0 -15.257-13.838c-22.295-11.956-57.445-5.708-58.931-5.435a8 8 0 0 0 -5.912 11.024c.6 1.388 14.843 34.124 37.137 46.078 13.825 7.413 29.254 6.312 42.962-.926 13.677 7.222 29.113 8.353 42.962.926 22.3-11.954 36.542-44.69 37.138-46.078a8 8 0 0 0 -5.912-11.024z" fill="#9ccc65"/><path d="m329.436 369.539a135.8 135.8 0 0 0 -35.985-1.14 88.029 88.029 0 0 1 -96.812 45.621c17.974 19.5 38.662 22.228 58.609 11.695 13.677 7.222 29.113 8.353 42.962.926 22.3-11.954 36.542-44.69 37.138-46.078a8 8 0 0 0 -5.912-11.024z" fill="#83bd46"/><path d="m505.436 369.539c-1.485-.272-36.636-6.521-58.931 5.435a41.591 41.591 0 0 0 -15.256 13.838 41.6 41.6 0 0 0 -15.257-13.838c-22.3-11.956-57.445-5.708-58.931-5.435a8 8 0 0 0 -5.912 11.024c.6 1.388 14.843 34.124 37.137 46.078 13.825 7.413 29.254 6.312 42.962-.926 13.677 7.222 29.113 8.353 42.962.926 22.3-11.954 36.542-44.69 37.138-46.078a8 8 0 0 0 -5.912-11.024z" fill="#9ccc65"/><path d="m505.436 369.539a135.8 135.8 0 0 0 -35.985-1.14 88.029 88.029 0 0 1 -96.812 45.621c17.974 19.5 38.662 22.228 58.609 11.695 13.677 7.222 29.113 8.353 42.962.926 22.3-11.954 36.542-44.69 37.138-46.078a8 8 0 0 0 -5.912-11.024z" fill="#83bd46"/><circle cx="28" cy="388" fill="#c6ed93" r="12"/><circle cx="56" cy="400" fill="#c6ed93" r="8"/><circle cx="204" cy="388" fill="#c6ed93" r="12"/><circle cx="232" cy="400" fill="#c6ed93" r="8"/><circle cx="380" cy="388" fill="#c6ed93" r="12"/><circle cx="408" cy="400" fill="#c6ed93" r="8"/><path d="m408 288h-104a8 8 0 0 1 -5.038-1.786l-296-240a8.007 8.007 0 0 1 5.038-14.214h104a8 8 0 0 1 5.038 1.786l296 240a8.007 8.007 0 0 1 -5.038 14.214z" fill="#80deea"/><path d="m385.43 272h-78.59l-276.27-224h78.59z" fill="#b2ebf2"/><circle cx="424" cy="88" fill="#ea7432" r="56"/><path d="m463.918 48.776c.05 1.069.082 2.143.082 3.224a68.03 68.03 0 0 1 -87.863 65.045 55.981 55.981 0 1 0 87.781-68.269z" fill="#e2601e"/><g fill="#fa9664"><circle cx="408" cy="64" r="16"/><circle cx="420" cy="96" r="8"/><circle cx="424" cy="8" r="8"/><circle cx="424" cy="168" r="8"/><circle cx="504" cy="88" r="8"/><circle cx="344" cy="88" r="8"/><circle cx="367.431" cy="31.431" r="8"/><circle cx="480.569" cy="144.569" r="8"/><circle cx="480.569" cy="31.431" r="8"/><circle cx="367.431" cy="144.569" r="8"/></g><path d="m168.36 96h-78.59l-19.73-16h78.59z" fill="#4dd0e1"/><path d="m227.56 144h-78.59l-19.73-16h78.59z" fill="#4dd0e1"/><path d="m286.76 192h-78.59l-19.73-16h78.59z" fill="#4dd0e1"/><path d="m345.96 240h-78.59l-19.73-16h78.59z" fill="#4dd0e1"/></g></g></svg>